<?xml version="1.0" standalone="no"?>
<!DOCTYPE svg PUBLIC "-//W3C//DTD SVG 20010904//EN"
 "http://www.w3.org/TR/2001/REC-SVG-20010904/DTD/svg10.dtd">
<svg version="1.0" xmlns="http://www.w3.org/2000/svg"
 width="700.000000pt" height="700.000000pt" viewBox="0 0 700.000000 700.000000"
 preserveAspectRatio="xMidYMid meet">
<metadata>
Created by potrace 1.11, written by Peter Selinger 2001-2013
</metadata>
<g transform="translate(0.000000,700.000000) scale(0.100000,-0.100000)"
fill="#000000" stroke="none">
<path d="M925 5170 c-2 -3 -3 -768 -3 -1702 l0 -1696 113 0 c97 0 114 2 117
17 2 9 3 674 3 1479 0 804 2 1462 6 1462 3 0 16 -28 28 -62 12 -35 26 -72 31
-83 5 -11 88 -234 185 -495 97 -261 187 -502 200 -535 12 -33 112 -298 221
-590 108 -291 199 -532 201 -535 2 -2 72 -4 155 -5 140 0 152 1 163 20 7 11
85 216 174 455 89 239 166 444 171 455 12 29 59 154 135 360 83 223 112 300
130 345 8 19 57 152 110 295 53 143 100 269 105 280 4 11 17 42 27 68 20 47
20 42 20 -1440 l-1 -1488 117 -1 117 -1 0 1698 c0 935 -3 1699 -7 1700 -31 4
-296 3 -303 -1 -5 -3 -28 -55 -51 -115 -22 -61 -51 -137 -63 -170 -64 -167
-98 -257 -266 -705 -100 -267 -192 -512 -205 -545 -31 -81 -220 -581 -255
-675 -86 -232 -113 -300 -119 -293 -4 4 -15 33 -25 63 -10 30 -25 69 -32 85
-12 28 -128 337 -163 435 -9 25 -19 50 -22 55 -4 6 -12 28 -18 50 -7 22 -17
49 -22 60 -5 11 -63 166 -129 345 -67 179 -125 334 -130 345 -5 11 -28 72 -51
135 -22 63 -49 134 -60 157 -10 24 -19 45 -19 47 0 4 -120 328 -217 586 -14
36 -29 79 -35 95 -6 17 -15 34 -20 40 -9 10 -307 15 -313 5z"/>
<path d="M3704 5168 c-3 -5 -7 -3237 -4 -3385 0 -8 112 -11 438 -10 l437 2 1
715 c1 393 2 717 3 720 0 3 291 5 646 5 l645 0 0 -722 0 -721 439 0 438 0 -1
1701 -1 1702 -425 0 c-234 1 -431 -1 -437 -3 -10 -3 -13 -142 -13 -648 0 -606
-1 -644 -17 -644 -26 -1 -1223 -1 -1253 -1 l-25 1 0 641 c0 352 -2 644 -5 648
-7 9 -860 8 -866 -1z"/>
</g>
</svg>
